<svg width="31" height="34" viewBox="0 0 31 34" fill="none" xmlns="http://www.w3.org/2000/svg">
<g id="&#240;&#159;&#166;&#134; icon &#34;beaker&#34;">
<path id="Vector" d="M5.13059 0.157151C4.62286 0.245712 4.1682 0.550526 3.86662 1.00454C3.56504 1.45855 3.44126 2.02457 3.5225 2.57807C3.60373 3.13158 3.88334 3.62724 4.2998 3.956C4.71626 4.28477 5.23547 4.41972 5.7432 4.33115H7.6576V10.2165C7.31301 10.9261 3.06304 19.8584 1.30179 23.1142C0.689184 24.1994 0 25.6603 0 27.5386C0 29.1665 0.57432 30.7526 1.56981 31.8378C2.5653 32.9231 4.02024 33.5492 5.51347 33.5492H25.1552C26.6102 33.5492 27.9885 32.8813 28.984 31.8378H29.0989C30.0944 30.7526 30.6687 29.1665 30.6687 27.5386C30.6687 25.6603 29.9412 24.1994 29.3669 23.1142C27.6056 19.8584 23.3557 10.9261 23.0111 10.2165V4.33115H24.9255C25.4332 4.33115 25.9201 4.11128 26.2792 3.71989C26.6382 3.3285 26.8399 2.79766 26.8399 2.24415C26.8399 1.69065 26.6382 1.15981 26.2792 0.76842C25.9201 0.377031 25.4332 0.157151 24.9255 0.157151H5.78149C5.66686 0.145858 5.55152 0.145858 5.43689 0.157151C5.36039 0.152138 5.28367 0.152138 5.20717 0.157151H5.13059ZM11.4864 4.33115H19.144V11.1348L19.3737 11.5104C19.3737 11.5104 21.7859 16.6445 23.93 21.0272H6.7004C8.84453 16.6445 11.2567 11.5104 11.2567 11.5104L11.4864 11.1348V4.33115Z" fill="#253962"/>
</g>
</svg>
