<svg width="15" height="34" viewBox="0 0 15 34" fill="none" xmlns="http://www.w3.org/2000/svg">
<g id="Icono Salud">
<path id="Vector" d="M11.25 0.214111C9.1875 0.214111 7.5 2.09289 7.5 4.38917C7.5 6.68546 9.1875 8.56424 11.25 8.56424C13.3125 8.56424 15 6.68546 15 4.38917C15 2.09289 13.3125 0.214111 11.25 0.214111ZM5.625 10.6518C2.5125 10.6518 0 13.4491 0 16.9144H3.75C3.75 15.7453 4.575 14.8268 5.625 14.8268C6.675 14.8268 7.5 15.7453 7.5 16.9144C7.5 18.0834 3.75 23.7615 3.75 27.352C3.75 30.9426 6.2625 33.6146 9.375 33.6146C12.4875 33.6146 15 30.8173 15 27.352H11.25C11.25 28.521 10.425 29.4396 9.375 29.4396C8.325 29.4396 7.5 28.521 7.5 27.352C7.5 25.849 11.25 19.6699 11.25 16.9144C11.25 13.5326 8.7375 10.6518 5.625 10.6518Z" fill="#253962"/>
</g>
</svg>
